<svg xmlns="http://www.w3.org/2000/svg" width="24.417" height="21" viewBox="0 0 24.417 21">
    <g id="back" transform="translate(0 -31.842)">
        <g id="Group_2016" data-name="Group 2016" transform="translate(0 31.842)">
            <path id="Path_11351" fill="#fff" d="M22.949 40.623a1.741 1.741 0 0 0-.3-.022H5.421l.376-.175a3.494 3.494 0 0 0 .987-.7l4.831-4.844a1.817 1.817 0 0 0 .253-2.321 1.744 1.744 0 0 0-2.621-.228L.512 41.091a1.756 1.756 0 0 0 0 2.478l8.735 8.76a1.745 1.745 0 0 0 2.621-.175 1.817 1.817 0 0 0-.253-2.321L6.793 44.98a3.5 3.5 0 0 0-.874-.639L5.4 44.1h17.151a1.809 1.809 0 0 0 1.843-1.472 1.751 1.751 0 0 0-1.445-2.005z" data-name="Path 11351" transform="translate(0 -31.842)"/>
        </g>
    </g>
</svg>
